{"glyphs":{"0":{"ha":685,"x_min":0,"x_max":0,"o":"m 669 339 b 360 669 669 543 564 665 b 15 317 276 663 15 518 b 321 -18 15 113 117 -18 b 669 339 385 -11 669 96 z m 368 28 b 129 356 275 28 129 150 b 313 615 129 489 179 615 b 556 286 415 615 556 478 b 368 28 556 194 501 28 z "},"1":{"ha":469,"x_min":0,"x_max":0,"o":"m 6 0 l 465 0 l 465 7 l 292 22 l 293 679 l 276 681 l 4 553 b 8 539 4 549 6 543 l 169 607 l 168 22 l 6 7 z "},"2":{"ha":617,"x_min":0,"x_max":0,"o":"m 588 161 b 533 96 572 142 543 96 l 201 97 b 129 72 194 97 161 83 b 497 510 299 210 497 368 b 285 669 497 589 404 669 b 15 531 249 668 67 578 l 28 524 b 210 600 85 568 150 600 b 353 486 296 600 353 560 b 75 54 353 299 176 139 l 18 8 l 18 0 l 500 0 l 603 158 z "},"3":{"ha":596,"x_min":0,"x_max":0,"o":"m 319 339 b 239 271 319 333 278 300 l 467 563 l 579 657 b 204 678 411 653 336 650 l 67 504 l 81 501 l 146 572 l 435 557 l 151 200 l 182 197 l 218 244 b 465 29 333 249 465 211 b 288 -246 465 -165 379 -237 b 164 3 196 -246 164 -126 l 149 4 b 56 -89 126 -32 79 -69 b 238 -283 56 -219 119 -283 b 581 88 328 -283 581 -150 b 319 339 581 256 461 339 z "},"4":{"ha":739,"x_min":0,"x_max":0,"o":"m 724 25 l 560 22 l 560 344 l 543 347 l 443 325 l 436 21 l 436 19 l 82 13 l 140 39 l 661 676 l 658 681 b 454 676 596 654 531 671 b 18 -12 378 450 167 232 l 15 -14 l 17 -14 b 15 -17 17 -15 15 -15 l 22 -14 l 436 -7 l 436 -339 l 557 -292 l 560 -283 l 560 -4 l 724 -1 z "},"5":{"ha":638,"x_min":0,"x_max":0,"o":"m 15 -89 b 108 4 39 -69 86 -32 l 124 3 b 275 -243 124 -126 183 -243 b 453 1 339 -235 453 -193 b 194 233 453 143 360 238 l 142 207 l 118 211 l 190 678 b 614 669 332 651 456 661 l 617 664 l 533 553 b 210 563 431 557 313 546 l 147 235 b 317 342 219 271 317 335 b 568 74 418 342 568 242 b 225 -283 568 -164 288 -283 b 15 -89 65 -283 15 -219 z "},"6":{"ha":682,"x_min":0,"x_max":0,"o":"m 15 321 b 661 1018 17 658 342 932 l 668 999 b 151 358 436 963 153 631 b 332 35 153 193 228 35 b 479 279 426 35 479 146 b 331 525 479 467 399 525 b 181 442 296 525 247 531 l 168 454 b 408 615 228 538 410 606 b 608 382 514 615 607 503 b 274 -18 607 88 338 -12 b 15 321 119 -15 17 101 z "},"7":{"ha":626,"x_min":0,"x_max":0,"o":"m 15 504 l 153 678 b 640 657 299 650 472 653 l 243 -331 l 42 -328 l 46 -314 b 563 547 181 -176 472 343 b 107 561 383 542 286 546 l 29 501 z "},"8":{"ha":636,"x_min":0,"x_max":0,"o":"m 388 547 b 604 763 438 579 604 665 b 319 989 604 928 461 989 b 36 732 285 989 36 882 b 214 482 36 624 119 547 b 15 213 142 440 15 365 b 329 -18 15 47 188 -18 b 621 265 363 -18 621 78 b 388 547 621 401 488 475 z m 307 965 b 474 732 417 965 474 903 b 376 556 474 638 431 586 b 179 771 376 553 179 638 b 307 965 179 864 231 965 z m 336 0 b 150 243 236 0 150 83 b 232 471 150 371 189 429 b 489 218 354 388 489 319 b 336 0 489 101 415 0 z "},"9":{"ha":667,"x_min":0,"x_max":0,"o":"m 625 351 b 47 -357 625 14 365 -265 l 40 -337 b 490 311 271 -297 490 39 b 290 613 490 476 394 613 b 163 385 196 603 163 518 b 314 129 163 197 246 129 b 461 224 347 129 407 147 l 475 215 b 238 50 407 121 238 54 b 35 279 132 50 35 158 b 347 667 35 574 283 660 b 625 351 501 667 625 571 z "},"A":{"ha":917,"x_min":0,"x_max":0,"o":"m 867 25 l 865 25 l 561 979 l 468 972 l 315 972 l 315 964 l 419 944 l 93 31 l -21 8 l -21 0 l 257 0 l 257 8 l 135 29 l 244 342 l 617 342 l 715 22 l 622 8 l 622 0 l 972 0 l 972 8 z m 254 368 l 443 908 l 443 907 l 446 893 l 608 368 z "},"Á":{"ha":833,"x_min":0,"x_max":0,"o":"m 708 1201 l 671 1218 l 565 1203 l 447 1024 l 492 1024 z m 879 25 l 878 25 l 574 979 l 481 972 l 328 972 l 328 964 l 432 944 l 106 31 l -8 8 l -8 0 l 269 0 l 269 8 l 147 29 l 257 342 l 629 342 l 728 22 l 635 8 l 635 0 l 985 0 l 985 8 z m 267 368 l 456 908 l 456 907 l 458 893 l 621 368 z "},"Â":{"ha":917,"x_min":0,"x_max":0,"o":"m 460 1150 l 607 1049 l 629 1060 l 474 1247 l 446 1247 l 290 1060 l 313 1049 z m 867 25 l 865 25 l 561 979 l 468 972 l 315 972 l 315 964 l 419 944 l 93 31 l -21 8 l -21 0 l 257 0 l 257 8 l 135 29 l 244 342 l 617 342 l 715 22 l 622 8 l 622 0 l 972 0 l 972 8 z m 254 368 l 443 908 l 443 907 l 446 893 l 608 368 z "},"Ä":{"ha":917,"x_min":0,"x_max":0,"o":"m 363 1028 b 428 1094 399 1028 428 1058 b 363 1161 428 1131 399 1161 b 294 1094 325 1161 294 1131 b 363 1028 294 1058 325 1028 z m 561 1028 b 628 1094 597 1028 628 1058 b 561 1161 628 1131 597 1161 b 494 1094 525 1161 494 1131 b 561 1028 494 1058 525 1028 z m 867 25 l 865 25 l 561 979 l 468 972 l 315 972 l 315 964 l 419 944 l 93 31 l -21 8 l -21 0 l 257 0 l 257 8 l 135 29 l 244 342 l 617 342 l 715 22 l 622 8 l 622 0 l 972 0 l 972 8 z m 254 368 l 443 908 l 443 907 l 446 893 l 608 368 z "},"À":{"ha":833,"x_min":0,"x_max":0,"o":"m 513 1038 l 408 1217 l 310 1218 b 265 1201 276 1218 265 1217 l 482 1038 z m 879 25 l 878 25 l 574 979 l 481 972 l 328 972 l 328 964 l 432 944 l 106 31 l -8 8 l -8 0 l 269 0 l 269 8 l 147 29 l 257 342 l 629 342 l 728 22 l 635 8 l 635 0 l 985 0 l 985 8 z m 267 368 l 456 908 l 456 907 l 458 893 l 621 368 z "},"Å":{"ha":917,"x_min":0,"x_max":0,"o":"m 465 1042 b 582 1160 529 1042 582 1094 b 465 1276 582 1224 529 1276 b 347 1160 400 1276 347 1224 b 465 1042 347 1094 400 1042 z m 465 1236 b 529 1161 504 1236 529 1199 b 465 1083 529 1119 504 1083 b 400 1161 425 1083 400 1119 b 465 1236 400 1199 425 1236 z m 867 25 l 865 25 l 561 979 l 468 972 l 315 972 l 315 964 l 419 944 l 93 31 l -21 8 l -21 0 l 257 0 l 257 8 l 135 29 l 244 342 l 617 342 l 715 22 l 622 8 l 622 0 l 972 0 l 972 8 z m 254 368 l 443 908 l 443 907 l 446 893 l 608 368 z "},"Ã":{"ha":917,"x_min":0,"x_max":0,"o":"m 553 1104 b 678 1257 571 1114 678 1169 l 654 1257 b 415 1196 654 1154 563 1196 b 290 1042 397 1186 290 1131 l 314 1042 b 553 1104 314 1153 454 1104 z m 867 25 l 865 25 l 561 979 l 468 972 l 315 972 l 315 964 l 419 944 l 93 31 l -21 8 l -21 0 l 257 0 l 257 8 l 135 29 l 244 342 l 617 342 l 715 22 l 622 8 l 622 0 l 972 0 l 972 8 z m 254 368 l 443 908 l 443 907 l 446 893 l 608 368 z "},"Æ":{"ha":1482,"x_min":0,"x_max":0,"o":"m 1422 260 b 1258 26 1400 214 1307 58 l 906 26 l 906 492 l 1185 492 l 1244 358 l 1253 358 l 1253 653 l 1244 653 l 1185 518 l 906 518 l 906 946 l 1265 946 b 1417 717 1315 904 1396 760 l 1425 717 l 1403 976 l 1368 972 l 549 972 l 549 964 l 714 942 l 103 31 l -21 8 l -21 0 l 257 0 l 257 8 l 144 28 l 353 342 l 767 342 l 767 36 l 660 8 l 660 0 l 1403 0 l 1433 257 z m 371 368 l 751 936 b 767 893 763 929 767 904 l 767 368 z "},"B":{"ha":818,"x_min":0,"x_max":0,"o":"m 790 269 b 525 519 790 399 675 492 b 735 778 628 549 736 613 b 407 974 735 931 604 975 l 25 972 l 25 964 l 132 936 l 132 36 l 14 8 l 14 0 l 422 0 b 790 269 513 0 792 -12 z m 271 936 b 372 951 283 947 335 950 b 613 763 533 950 613 861 b 386 529 613 597 503 529 l 379 529 l 286 532 b 271 533 282 533 276 533 z m 449 29 b 271 92 415 29 308 47 l 271 496 b 386 501 296 500 343 501 b 661 260 547 500 661 372 b 449 29 661 94 586 29 z "},"C":{"ha":882,"x_min":0,"x_max":0,"o":"m 28 451 b 503 -18 28 157 226 -17 b 854 222 608 33 822 172 l 838 247 b 560 82 804 199 656 82 b 157 538 292 82 157 247 b 483 956 157 732 317 956 b 806 688 629 956 753 814 l 824 692 l 781 956 b 522 989 714 979 614 989 b 28 451 258 947 28 715 z "},"Ç":{"ha":868,"x_min":0,"x_max":0,"o":"m 847 222 l 831 247 b 553 82 797 199 649 82 b 150 538 285 82 150 247 b 476 956 150 732 310 956 b 799 688 622 956 746 814 l 817 692 l 774 956 b 515 989 707 979 607 989 b 21 451 251 947 21 715 b 472 -18 21 165 208 -7 l 332 -124 l 336 -129 b 542 -206 371 -129 542 -89 b 446 -337 542 -307 478 -337 b 358 -239 418 -337 358 -287 b 299 -268 336 -244 318 -253 b 442 -350 299 -312 403 -350 b 607 -179 449 -350 607 -315 b 376 -114 607 -67 447 -68 l 635 61 b 847 222 729 119 826 190 z "},"D":{"ha":1063,"x_min":0,"x_max":0,"o":"m 42 0 l 532 -1 b 1035 532 624 3 1035 176 b 540 974 1035 832 840 985 l 56 972 l 56 964 l 176 936 l 176 36 l 42 8 z m 315 97 l 315 943 b 428 951 346 950 407 951 b 878 517 725 951 878 829 b 586 57 878 224 792 57 b 315 97 515 57 358 57 z "},"Ð":{"ha":1063,"x_min":0,"x_max":0,"o":"m 540 974 l 56 972 l 56 964 l 176 936 l 176 549 l 86 543 l 86 524 l 176 524 l 176 36 l 42 8 l 42 0 l 532 -1 b 1035 532 624 3 1035 176 b 540 974 1035 832 840 985 z m 586 57 b 315 97 515 57 358 57 l 315 524 l 407 524 l 407 543 l 315 549 l 315 943 b 428 951 346 950 407 951 b 878 517 725 951 878 829 b 586 57 878 224 792 57 z "},"E":{"ha":836,"x_min":0,"x_max":0,"o":"m 776 260 b 613 26 754 214 661 58 l 260 26 l 260 492 l 539 492 l 599 358 l 607 358 l 607 653 l 599 653 l 539 518 l 260 518 l 260 946 l 619 946 b 771 717 669 904 750 760 l 779 717 l 757 976 l 722 972 l 38 972 l 38 954 l 121 942 l 121 36 l 14 8 l 14 0 l 757 0 l 788 257 z "},"É":{"ha":833,"x_min":0,"x_max":0,"o":"m 679 1201 l 642 1218 l 536 1203 l 418 1024 l 463 1024 z m 818 260 b 654 26 796 214 703 58 l 301 26 l 301 492 l 581 492 l 640 358 l 649 358 l 649 653 l 640 653 l 581 518 l 301 518 l 301 946 l 661 946 b 813 717 711 904 792 760 l 821 717 l 799 976 l 764 972 l 42 972 l 42 964 l 163 936 l 163 36 l 56 8 l 56 0 l 799 0 l 829 257 z "},"Ê":{"ha":836,"x_min":0,"x_max":0,"o":"m 447 1150 l 594 1049 l 617 1060 l 461 1247 l 433 1247 l 278 1060 l 300 1049 z m 776 260 b 613 26 754 214 661 58 l 260 26 l 260 492 l 539 492 l 599 358 l 607 358 l 607 653 l 599 653 l 539 518 l 260 518 l 260 946 l 619 946 b 771 717 669 904 750 760 l 779 717 l 757 976 l 722 972 l 38 972 l 38 954 l 121 942 l 121 36 l 14 8 l 14 0 l 757 0 l 788 257 z "},"Ë":{"ha":843,"x_min":0,"x_max":0,"o":"m 325 1028 b 390 1094 361 1028 390 1058 b 325 1161 390 1131 361 1161 b 257 1094 288 1161 257 1131 b 325 1028 257 1058 288 1028 z m 524 1028 b 590 1094 560 1028 590 1058 b 524 1161 590 1131 560 1161 b 457 1094 488 1161 457 1131 b 524 1028 457 1058 488 1028 z m 776 260 b 613 26 754 214 661 58 l 260 26 l 260 492 l 539 492 l 599 358 l 607 358 l 607 653 l 599 653 l 539 518 l 260 518 l 260 946 l 619 946 b 771 717 669 904 750 760 l 779 717 l 757 976 l 722 972 l 38 972 l 38 954 l 121 942 l 121 36 l 14 8 l 14 0 l 757 0 l 788 257 z "},"È":{"ha":833,"x_min":0,"x_max":0,"o":"m 499 1042 l 381 1221 l 275 1236 l 238 1219 l 454 1042 z m 818 260 b 654 26 796 214 703 58 l 301 26 l 301 492 l 581 492 l 640 358 l 649 358 l 649 653 l 640 653 l 581 518 l 301 518 l 301 946 l 661 946 b 813 717 711 904 792 760 l 821 717 l 799 976 l 764 972 l 42 972 l 42 964 l 163 936 l 163 36 l 56 8 l 56 0 l 799 0 l 829 257 z "},"F":{"ha":822,"x_min":0,"x_max":0,"o":"m 785 976 l 750 972 l 51 972 l 51 954 l 149 939 l 149 26 l 42 8 l 42 0 l 450 0 l 450 8 l 288 26 l 288 447 l 567 447 l 626 314 l 635 314 l 635 608 l 626 608 l 567 474 l 288 474 l 288 946 l 647 946 b 799 717 697 904 778 760 l 807 717 z "},"G":{"ha":976,"x_min":0,"x_max":0,"o":"m 956 431 l 592 431 l 592 422 l 728 381 l 728 92 b 563 58 674 72 611 58 b 163 563 336 58 163 272 b 486 956 163 757 319 956 b 853 690 647 956 789 844 l 863 692 l 832 942 b 525 989 765 972 617 989 b 28 483 261 947 28 747 b 506 -18 28 189 229 -17 b 857 147 611 33 825 97 l 854 385 l 956 422 z "},"H":{"ha":983,"x_min":0,"x_max":0,"o":"m 942 964 l 942 972 l 631 972 l 631 964 l 721 950 l 715 514 l 274 514 l 274 950 l 356 964 l 356 972 l 42 972 l 42 964 l 135 950 l 135 22 l 42 8 l 42 0 l 367 0 l 367 8 l 274 22 l 274 488 l 715 488 l 710 22 l 618 8 l 618 0 l 940 0 l 940 8 l 849 22 l 849 950 z "},"I":{"ha":408,"x_min":0,"x_max":0,"o":"m 274 22 l 274 950 l 356 964 l 356 972 l 42 972 l 42 964 l 135 950 l 135 22 l 42 8 l 42 0 l 367 0 l 367 8 z "},"Í":{"ha":474,"x_min":0,"x_max":0,"o":"m 432 1201 l 394 1218 l 289 1203 l 171 1024 l 215 1024 z m 274 950 l 356 964 l 356 972 l 42 972 l 42 964 l 135 950 l 135 22 l 42 8 l 42 0 l 367 0 l 367 8 l 274 22 z "},"Î":{"ha":408,"x_min":0,"x_max":0,"o":"m 211 1150 l 358 1049 l 381 1060 l 225 1247 l 197 1247 l 42 1060 l 64 1049 z m 274 950 l 356 964 l 356 972 l 42 972 l 42 964 l 135 950 l 135 22 l 42 8 l 42 0 l 367 0 l 367 8 l 274 22 z "},"Ï":{"ha":408,"x_min":0,"x_max":0,"o":"m 118 1028 b 183 1094 154 1028 183 1058 b 118 1161 183 1131 154 1161 b 50 1094 81 1161 50 1131 b 118 1028 50 1058 81 1028 z m 317 1028 b 383 1094 353 1028 383 1058 b 317 1161 383 1131 353 1161 b 250 1094 281 1161 250 1131 b 317 1028 250 1058 281 1028 z m 274 950 l 356 964 l 356 972 l 42 972 l 42 964 l 135 950 l 135 22 l 42 8 l 42 0 l 367 0 l 367 8 l 274 22 z "},"Ì":{"ha":408,"x_min":0,"x_max":0,"o":"m 229 1042 l 111 1221 l 6 1236 l -32 1219 l 185 1042 z m 274 22 l 274 950 l 356 964 l 356 972 l 42 972 l 42 964 l 135 950 l 135 22 l 42 8 l 42 0 l 367 0 l 367 8 z "},"J":{"ha":501,"x_min":0,"x_max":0,"o":"m 497 972 l 292 971 l 72 972 l 72 960 l 211 938 l 204 -244 b 128 -300 200 -281 174 -300 b 1 -239 93 -300 46 -274 l -83 -324 b 78 -381 -49 -353 14 -376 b 350 -17 171 -376 350 -133 l 350 933 l 497 960 z "},"K":{"ha":896,"x_min":0,"x_max":0,"o":"m 822 22 l 819 22 l 454 617 l 725 936 l 836 964 l 836 972 l 572 972 l 572 964 l 688 939 l 250 421 l 242 421 l 274 949 l 365 960 l 365 972 l 246 971 l 42 972 l 42 964 l 135 947 l 126 22 l 42 7 l 42 0 l 350 0 l 350 7 l 265 22 l 258 388 l 360 507 l 665 22 l 675 0 l 914 0 l 914 7 z "},"L":{"ha":811,"x_min":0,"x_max":0,"o":"m 790 260 b 621 19 765 208 663 18 l 319 21 l 329 944 l 447 960 l 447 972 l 301 971 l 68 972 l 68 964 l 189 943 l 181 28 l 71 11 l 71 0 l 781 0 l 801 257 z "},"M":{"ha":1278,"x_min":0,"x_max":0,"o":"m 1135 25 l 1122 938 l 1233 954 l 1233 972 l 1049 972 l 985 975 l 985 972 l 664 208 l 664 213 l 340 976 l 210 972 l 46 972 l 46 954 l 168 936 l 163 32 l 35 8 l 35 0 l 346 0 l 346 8 l 206 33 l 204 922 l 592 -3 l 615 -3 l 986 889 l 999 25 l 890 8 l 890 0 l 1243 0 l 1243 8 z "},"N":{"ha":986,"x_min":0,"x_max":0,"o":"m 972 972 l 633 972 l 633 964 l 789 940 l 793 233 l 322 976 l 192 972 l 53 972 l 53 954 l 147 940 l 142 32 l 14 8 l 14 0 l 325 0 l 325 8 l 185 33 l 183 918 l 761 0 l 831 0 l 832 940 l 972 964 z "},"Ñ":{"ha":1021,"x_min":0,"x_max":0,"o":"m 636 1104 b 761 1257 654 1114 761 1169 l 738 1257 b 499 1196 738 1154 646 1196 b 374 1042 481 1186 374 1131 l 397 1042 b 636 1104 397 1153 538 1104 z m 972 972 l 633 972 l 633 964 l 789 940 l 793 233 l 322 976 l 192 972 l 53 972 l 53 954 l 147 940 l 142 32 l 14 8 l 14 0 l 325 0 l 325 8 l 185 33 l 183 918 l 761 0 l 831 0 l 832 940 l 972 964 z "},"O":{"ha":1003,"x_min":0,"x_max":0,"o":"m 975 504 b 522 990 975 804 808 983 b 28 471 426 985 28 793 b 465 -21 28 169 163 -21 b 975 504 557 -17 975 149 z m 515 40 b 165 528 379 40 165 214 b 471 922 165 740 276 922 b 822 426 676 922 822 763 b 515 40 822 214 710 40 z "},"Ó":{"ha":833,"x_min":0,"x_max":0,"o":"m 488 1024 l 606 1203 l 711 1218 l 749 1201 l 532 1024 z m 968 504 b 515 990 968 804 801 983 b 21 471 419 985 21 793 b 458 -21 21 169 156 -21 b 968 504 550 -17 968 149 z m 508 40 b 158 528 372 40 158 214 b 464 922 158 740 269 922 b 815 426 669 922 815 763 b 508 40 815 214 703 40 z "},"Ô":{"ha":989,"x_min":0,"x_max":0,"o":"m 517 1150 l 664 1049 l 686 1060 l 531 1247 l 503 1247 l 347 1060 l 369 1049 z m 522 990 b 28 471 426 985 28 793 b 465 -21 28 169 163 -21 b 975 504 557 -17 975 149 b 522 990 975 804 808 983 z m 515 40 b 165 528 379 40 165 214 b 471 922 165 740 276 922 b 822 426 676 922 822 763 b 515 40 822 214 710 40 z "},"Ö":{"ha":833,"x_min":0,"x_max":0,"o":"m 410 1028 b 475 1094 446 1028 475 1058 b 410 1161 475 1131 446 1161 b 342 1094 372 1161 342 1131 b 410 1028 342 1058 372 1028 z m 608 1028 b 675 1094 644 1028 675 1058 b 608 1161 675 1131 644 1161 b 542 1094 572 1161 542 1131 b 608 1028 542 1058 572 1028 z m 975 504 b 522 990 975 804 808 983 b 28 471 426 985 28 793 b 465 -21 28 169 163 -21 b 975 504 557 -17 975 149 z m 515 40 b 165 528 379 40 165 214 b 471 922 165 740 276 922 b 822 426 676 922 822 763 b 515 40 822 214 710 40 z "},"Ò":{"ha":1003,"x_min":0,"x_max":0,"o":"m 554 1042 l 510 1042 l 293 1219 l 331 1236 l 436 1221 z m 975 504 b 522 990 975 804 808 983 b 28 471 426 985 28 793 b 465 -21 28 169 163 -21 b 975 504 557 -17 975 149 z m 515 40 b 165 528 379 40 165 214 b 471 922 165 740 276 922 b 822 426 676 922 822 763 b 515 40 822 214 710 40 z "},"Ø":{"ha":1003,"x_min":0,"x_max":0,"o":"m 774 924 l 842 1042 l 757 1042 l 707 956 b 522 990 653 976 592 989 b 28 471 426 985 28 793 b 189 58 28 285 79 142 l 122 -58 l 201 -58 l 249 22 b 465 -21 308 -6 381 -21 b 975 504 557 -17 975 149 b 774 924 975 701 903 846 z m 165 528 b 471 922 165 740 276 922 b 656 867 540 922 603 904 l 268 193 b 165 528 208 275 165 388 z m 515 40 b 315 138 456 40 381 74 l 711 817 b 822 426 781 735 822 606 b 515 40 822 214 710 40 z "},"Õ":{"ha":981,"x_min":0,"x_max":0,"o":"m 318 1042 l 342 1042 b 581 1104 342 1153 482 1104 b 706 1257 599 1114 706 1169 l 682 1257 b 443 1196 682 1154 590 1196 b 318 1042 425 1186 318 1131 z m 975 504 b 522 990 975 804 808 983 b 28 471 426 985 28 793 b 465 -21 28 169 163 -21 b 975 504 557 -17 975 149 z m 515 40 b 165 528 379 40 165 214 b 471 922 165 740 276 922 b 822 426 676 922 822 763 b 515 40 822 214 710 40 z "},"Œ":{"ha":1154,"x_min":0,"x_max":0,"o":"m 28 471 b 451 0 28 174 158 0 l 1075 0 l 1106 257 l 1094 260 b 931 26 1072 214 979 58 l 578 26 b 975 492 731 92 968 257 l 1035 358 l 1043 358 l 1043 653 l 1035 653 l 975 518 b 689 946 971 729 868 885 l 938 946 b 1089 717 988 904 1068 760 l 1097 717 l 1075 976 l 1040 972 l 553 972 l 522 974 b 28 471 426 968 28 793 z m 165 528 b 411 900 165 718 254 867 l 411 89 b 165 528 292 150 165 288 z m 550 518 l 550 897 b 818 518 694 864 797 735 z m 550 63 l 550 492 l 821 492 b 822 426 822 471 822 449 b 550 63 822 247 724 82 z "},"P":{"ha":819,"x_min":0,"x_max":0,"o":"m 42 0 l 469 0 l 469 8 l 315 36 l 315 432 l 439 433 b 804 744 492 438 806 463 b 479 974 804 903 676 978 l 56 972 l 56 964 l 176 936 l 176 36 l 42 8 z m 315 486 l 315 931 b 444 949 328 942 421 947 b 678 715 606 947 678 842 b 469 464 678 550 607 464 b 315 486 428 464 371 471 z "},"Þ":{"ha":833,"x_min":0,"x_max":0,"o":""},"Q":{"ha":983,"x_min":0,"x_max":0,"o":"m 1050 -89 l 946 -146 b 522 -7 911 -169 699 -8 b 968 504 671 40 968 204 b 515 990 968 804 801 983 b 21 471 419 985 21 793 b 458 -21 21 169 156 -21 b 501 -12 469 -21 483 -18 l 382 -83 l 289 -122 b 329 -133 300 -132 314 -136 l 424 -85 b 849 -233 567 -119 679 -162 l 861 -239 l 1060 -103 z m 161 528 b 464 922 161 740 269 922 b 813 426 669 922 813 763 b 508 40 813 214 703 40 b 161 528 372 40 161 214 z "},"R":{"ha":942,"x_min":0,"x_max":0,"o":"m 42 0 l 469 0 l 469 8 l 315 36 l 315 447 l 442 449 b 719 0 481 439 621 147 l 901 -1 l 997 65 l 989 78 l 904 26 b 631 433 821 26 636 433 l 500 461 b 807 769 614 476 808 557 b 479 974 807 914 676 978 l 56 972 l 56 964 l 176 936 l 176 36 l 42 8 z m 315 493 l 315 933 b 444 951 328 944 421 950 b 681 740 606 950 681 853 b 469 482 681 575 607 482 b 315 493 442 482 371 483 z "},"S":{"ha":789,"x_min":0,"x_max":0,"o":"m 64 106 b 381 -19 99 71 274 -19 b 728 303 597 17 728 111 b 186 819 728 515 186 592 b 335 954 186 901 276 954 b 571 853 432 953 544 896 l 678 710 l 693 710 l 653 924 b 392 990 596 953 435 990 b 71 719 192 954 71 861 b 586 215 71 489 586 407 b 418 15 586 71 506 15 b 188 115 317 17 229 63 l 78 342 l 63 342 z "},"T":{"ha":817,"x_min":0,"x_max":0,"o":"m 654 946 b 801 715 707 890 782 756 l 810 715 l 778 978 l 760 978 b 678 972 742 975 692 972 l 139 972 b 57 978 125 972 75 975 l 39 978 l 7 715 l 15 715 b 163 946 35 756 110 890 l 338 946 l 338 50 l 175 8 l 175 0 l 639 0 l 639 8 l 476 50 l 476 946 z "},"U":{"ha":922,"x_min":0,"x_max":0,"o":"m 69 965 l 151 953 l 151 346 b 456 -17 151 81 283 -17 b 822 369 639 -17 822 121 l 822 936 l 904 964 l 904 972 l 668 972 l 668 964 l 783 936 l 783 369 b 497 38 783 171 657 38 b 290 338 382 38 290 158 l 290 953 l 372 963 l 372 972 l 69 972 z "},"Ú":{"ha":833,"x_min":0,"x_max":0,"o":"m 501 1024 l 619 1203 l 725 1218 l 763 1201 l 546 1024 z m 69 965 l 151 953 l 151 346 b 456 -17 151 81 283 -17 b 822 369 639 -17 822 121 l 822 936 l 904 964 l 904 972 l 668 972 l 668 964 l 783 936 l 783 369 b 497 38 783 171 657 38 b 290 338 382 38 290 158 l 290 953 l 372 963 l 372 972 l 69 972 z "},"Û":{"ha":833,"x_min":0,"x_max":0,"o":"m 515 1150 l 663 1049 l 685 1060 l 529 1247 l 501 1247 l 346 1060 l 368 1049 z m 668 972 l 668 964 l 783 936 l 783 369 b 497 38 783 171 657 38 b 290 338 382 38 290 158 l 290 953 l 372 963 l 372 972 l 69 972 l 69 965 l 151 953 l 151 346 b 456 -17 151 81 283 -17 b 822 369 639 -17 822 121 l 822 936 l 904 964 l 904 972 z "},"Ü":{"ha":833,"x_min":0,"x_max":0,"o":"m 428 1028 b 493 1094 464 1028 493 1058 b 428 1161 493 1131 464 1161 b 360 1094 390 1161 360 1131 b 428 1028 360 1058 390 1028 z m 626 1028 b 693 1094 663 1028 693 1058 b 626 1161 693 1131 663 1161 b 560 1094 590 1161 560 1131 b 626 1028 560 1058 590 1028 z m 69 965 l 151 953 l 151 346 b 456 -17 151 81 283 -17 b 822 369 639 -17 822 121 l 822 936 l 904 964 l 904 972 l 668 972 l 668 964 l 783 936 l 783 369 b 497 38 783 171 657 38 b 290 338 382 38 290 158 l 290 953 l 372 963 l 372 972 l 69 972 z "},"Ù":{"ha":833,"x_min":0,"x_max":0,"o":"m 539 1042 l 494 1042 l 278 1219 l 315 1236 l 421 1221 z m 69 965 l 151 953 l 151 346 b 456 -17 151 81 283 -17 b 822 369 639 -17 822 121 l 822 936 l 904 964 l 904 972 l 668 972 l 668 964 l 783 936 l 783 369 b 497 38 783 171 657 38 b 290 338 382 38 290 158 l 290 953 l 372 963 l 372 972 l 69 972 z "},"V":{"ha":885,"x_min":0,"x_max":0,"o":"m 933 972 l 669 972 l 669 964 l 779 938 l 506 71 l 501 71 l 226 943 l 322 964 l 322 972 l -28 972 l -28 964 l 72 943 l 375 -10 l 481 0 l 525 0 l 822 936 l 933 964 z "},"W":{"ha":1478,"x_min":0,"x_max":0,"o":"m 1526 972 l 1263 972 l 1263 964 l 1372 938 l 1111 71 l 1108 71 l 824 972 l 669 972 l 721 810 l 488 71 l 483 71 l 222 942 l 322 964 l 322 972 l -28 972 l -28 964 l 67 944 l 357 -10 l 463 0 l 507 0 l 743 743 l 982 -10 l 1088 0 l 1132 0 l 1415 936 l 1526 964 z "},"Ẃ":{"ha":1478,"x_min":0,"x_max":0,"o":"m 1026 1201 l 989 1218 l 883 1203 l 765 1024 l 810 1024 z m 1526 972 l 1263 972 l 1263 964 l 1372 938 l 1111 71 l 1108 71 l 824 972 l 669 972 l 721 810 l 488 71 l 483 71 l 222 942 l 322 964 l 322 972 l -28 972 l -28 964 l 67 944 l 357 -10 l 463 0 l 507 0 l 743 743 l 982 -10 l 1088 0 l 1132 0 l 1415 936 l 1526 964 z "},"Ŵ":{"ha":1478,"x_min":0,"x_max":0,"o":"m 761 1150 l 908 1049 l 931 1060 l 775 1247 l 747 1247 l 592 1060 l 614 1049 z m 1526 972 l 1263 972 l 1263 964 l 1372 938 l 1111 71 l 1108 71 l 824 972 l 669 972 l 721 810 l 488 71 l 483 71 l 222 942 l 322 964 l 322 972 l -28 972 l -28 964 l 67 944 l 357 -10 l 463 0 l 507 0 l 743 743 l 982 -10 l 1088 0 l 1132 0 l 1415 936 l 1526 964 z "},"Ẅ":{"ha":1478,"x_min":0,"x_max":0,"o":"m 661 1028 b 726 1094 697 1028 726 1058 b 661 1161 726 1131 697 1161 b 593 1094 624 1161 593 1131 b 661 1028 593 1058 624 1028 z m 860 1028 b 926 1094 896 1028 926 1058 b 860 1161 926 1131 896 1161 b 793 1094 824 1161 793 1131 b 860 1028 793 1058 824 1028 z m 1526 972 l 1263 972 l 1263 964 l 1372 938 l 1111 71 l 1108 71 l 824 972 l 669 972 l 721 810 l 488 71 l 483 71 l 222 942 l 322 964 l 322 972 l -28 972 l -28 964 l 67 944 l 357 -10 l 463 0 l 507 0 l 743 743 l 982 -10 l 1088 0 l 1132 0 l 1415 936 l 1526 964 z "},"Ẁ":{"ha":1478,"x_min":0,"x_max":0,"o":"m 818 1042 l 700 1221 l 594 1236 l 557 1219 l 774 1042 z m 1526 972 l 1263 972 l 1263 964 l 1372 938 l 1111 71 l 1108 71 l 824 972 l 669 972 l 721 810 l 488 71 l 483 71 l 222 942 l 322 964 l 322 972 l -28 972 l -28 964 l 67 944 l 357 -10 l 463 0 l 507 0 l 743 743 l 982 -10 l 1088 0 l 1132 0 l 1415 936 l 1526 964 z "},"X":{"ha":882,"x_min":0,"x_max":0,"o":"m 810 22 l 490 575 l 735 946 l 842 967 l 842 975 l 614 975 l 614 967 l 697 946 l 475 603 l 275 951 l 349 967 l 349 972 l 51 972 l 51 967 l 129 950 l 400 478 l 133 26 l 26 6 l 26 -3 l 279 -3 l 279 6 l 185 28 l 181 28 l 418 446 l 663 21 l 592 6 l 592 0 l 889 0 l 889 6 z "},"Y":{"ha":719,"x_min":0,"x_max":0,"o":"m 803 972 l 575 972 l 575 964 l 663 942 l 436 475 l 435 486 l 204 950 l 285 967 l 285 972 l -28 972 l -28 967 l 60 950 l 315 442 l 315 22 l 222 8 l 222 0 l 547 0 l 547 8 l 454 22 l 454 449 l 694 940 l 803 964 z "},"Ý":{"ha":833,"x_min":0,"x_max":0,"o":"m 679 1201 l 642 1218 l 536 1203 l 418 1024 l 463 1024 z m 803 972 l 575 972 l 575 964 l 663 942 l 436 475 l 435 486 l 204 950 l 285 967 l 285 972 l -28 972 l -28 967 l 60 950 l 315 442 l 315 22 l 222 8 l 222 0 l 547 0 l 547 8 l 454 22 l 454 449 l 694 940 l 803 964 z "},"Ŷ":{"ha":833,"x_min":0,"x_max":0,"o":"m 211 1150 l 358 1049 l 381 1060 l 225 1247 l 197 1247 l 42 1060 l 64 1049 z m 803 972 l 575 972 l 575 964 l 663 942 l 436 475 l 435 486 l 204 950 l 285 967 l 285 972 l -28 972 l -28 967 l 60 950 l 315 442 l 315 22 l 222 8 l 222 0 l 547 0 l 547 8 l 454 22 l 454 449 l 694 940 l 803 964 z "},"Ÿ":{"ha":833,"x_min":0,"x_max":0,"o":"m 326 1028 b 392 1094 363 1028 392 1058 b 326 1161 392 1131 363 1161 b 258 1094 289 1161 258 1131 b 326 1028 258 1058 289 1028 z m 525 1028 b 592 1094 561 1028 592 1058 b 525 1161 592 1131 561 1161 b 458 1094 489 1161 458 1131 b 525 1028 458 1058 489 1028 z m 803 972 l 575 972 l 575 964 l 663 942 l 436 475 l 435 486 l 204 950 l 285 967 l 285 972 l -28 972 l -28 967 l 60 950 l 315 442 l 315 22 l 222 8 l 222 0 l 547 0 l 547 8 l 454 22 l 454 449 l 694 940 l 803 964 z "},"Ỳ":{"ha":833,"x_min":0,"x_max":0,"o":"m 443 1042 l 325 1221 l 219 1236 l 182 1219 l 399 1042 z m 803 972 l 575 972 l 575 964 l 663 942 l 436 475 l 435 486 l 204 950 l 285 967 l 285 972 l -28 972 l -28 967 l 60 950 l 315 442 l 315 22 l 222 8 l 222 0 l 547 0 l 547 8 l 454 22 l 454 449 l 694 940 l 803 964 z "},"Z":{"ha":789,"x_min":0,"x_max":0,"o":"m 571 21 l 214 21 l 754 956 l 743 972 l 83 972 l 83 964 l 78 718 l 90 715 l 219 951 l 593 950 l 35 19 l 51 0 l 699 0 l 715 282 l 703 285 z "},"a":{"ha":693,"x_min":0,"x_max":0,"o":"m 14 308 b 263 -18 14 89 118 -18 b 471 174 321 6 408 97 l 478 174 l 475 0 l 682 0 l 682 7 l 589 22 l 590 606 b 347 669 556 636 481 669 b 14 308 254 640 14 525 z m 132 358 b 315 611 132 532 185 611 b 465 528 375 611 424 579 l 463 182 b 304 82 413 125 354 82 b 132 358 224 82 132 188 z "},"á":{"ha":833,"x_min":0,"x_max":0,"o":"m 628 1001 l 628 1003 b 592 1017 626 1003 592 1017 l 496 1003 b 350 754 496 988 350 758 l 389 754 z m 596 22 l 597 606 b 354 669 563 636 488 669 b 21 308 261 640 21 525 b 269 -18 21 89 125 -18 b 479 197 328 6 417 115 l 485 197 l 472 0 l 689 0 l 689 7 z m 311 82 b 139 358 231 82 139 188 b 322 611 139 532 192 611 b 472 528 382 611 431 579 l 469 204 b 311 82 419 142 361 82 z "},"â":{"ha":707,"x_min":0,"x_max":0,"o":"m 374 919 l 521 818 l 543 829 l 388 1017 l 360 1017 l 204 829 l 226 818 z m 603 22 l 604 606 b 361 669 569 636 494 669 b 28 308 268 640 28 525 b 276 -18 28 89 132 -18 b 486 197 335 6 424 115 l 492 197 l 489 0 l 696 0 l 696 7 z m 318 82 b 146 358 238 82 146 188 b 329 611 146 532 199 611 b 479 528 389 611 438 579 l 476 204 b 318 82 426 142 368 82 z "},"ä":{"ha":693,"x_min":0,"x_max":0,"o":"m 326 874 b 392 940 363 874 392 904 b 326 1007 392 976 363 1007 b 258 940 289 1007 258 976 b 326 874 258 904 289 874 z m 525 874 b 592 940 561 874 592 904 b 525 1007 592 976 561 1007 b 458 940 489 1007 458 976 b 525 874 458 904 489 874 z m 14 308 b 263 -18 14 89 118 -18 b 471 174 321 6 408 97 l 478 174 l 475 0 l 682 0 l 682 7 l 589 22 l 590 606 b 347 669 556 636 481 669 b 14 308 254 640 14 525 z m 132 358 b 315 611 132 532 185 611 b 465 528 375 611 424 579 l 463 182 b 304 82 413 125 354 82 b 132 358 224 82 132 188 z "},"à":{"ha":833,"x_min":0,"x_max":0,"o":"m 392 754 b 246 1003 392 758 246 988 l 150 1017 b 114 1003 150 1017 115 1003 l 114 1001 l 353 754 z m 596 22 l 597 606 l 596 606 b 354 669 561 636 488 669 b 21 308 261 640 21 525 b 269 -18 21 89 125 -18 b 479 197 328 6 417 115 l 485 197 l 472 0 l 689 0 l 689 7 z m 311 82 b 139 358 231 82 139 188 b 322 611 139 532 192 611 b 472 528 382 611 431 579 l 469 204 b 311 82 419 142 361 82 z "},"å":{"ha":711,"x_min":0,"x_max":0,"o":"m 382 739 b 499 857 446 739 499 792 b 382 974 499 921 446 974 b 264 857 317 974 264 921 b 382 739 264 792 317 739 z m 382 781 b 317 858 342 781 317 817 b 382 933 317 896 342 933 b 446 858 421 933 446 896 b 382 781 446 817 421 781 z m 14 308 b 263 -18 14 89 118 -18 b 471 174 321 6 408 97 l 478 174 l 475 0 l 682 0 l 682 7 l 589 22 l 590 606 b 347 669 556 636 481 669 b 14 308 254 640 14 525 z m 132 358 b 315 611 132 532 185 611 b 465 528 375 611 424 579 l 463 182 b 304 82 413 125 354 82 b 132 358 224 82 132 188 z "},"ã":{"ha":693,"x_min":0,"x_max":0,"o":"m 208 825 l 232 825 b 471 888 232 936 372 888 b 596 1040 489 897 596 953 l 572 1040 b 333 979 572 938 481 979 b 208 825 315 969 208 914 z m 14 308 b 263 -18 14 89 118 -18 b 471 174 321 6 408 97 l 478 174 l 475 0 l 682 0 l 682 7 l 589 22 l 590 606 b 347 669 556 636 481 669 b 14 308 254 640 14 525 z m 132 358 b 315 611 132 532 185 611 b 465 528 375 611 424 579 l 463 182 b 304 82 413 125 354 82 b 132 358 224 82 132 188 z "},"æ":{"ha":1061,"x_min":0,"x_max":0,"o":"m 15 308 b 264 -18 15 89 119 -18 b 483 190 322 6 421 108 l 492 190 b 754 -12 528 68 624 -12 b 825 -4 779 -12 800 -11 b 1040 146 908 38 981 86 l 1025 160 b 846 71 990 121 925 71 b 592 344 688 71 600 190 l 592 363 l 1033 365 b 776 669 1031 576 972 675 b 592 579 703 654 640 622 b 349 669 553 614 482 669 b 15 308 256 640 15 525 z m 592 375 l 592 421 b 744 631 597 550 629 626 b 906 410 833 633 906 556 b 900 389 906 404 903 396 z m 133 358 b 317 611 133 532 186 611 b 467 528 376 611 425 579 l 464 204 b 306 82 414 142 356 82 b 133 358 225 82 133 188 z "},"b":{"ha":704,"x_min":0,"x_max":0,"o":"m 8 1021 l 101 1004 l 101 75 l 97 74 l 78 58 b 351 -19 114 28 218 -19 b 689 350 444 10 689 133 b 436 669 689 569 581 669 b 224 457 376 646 286 538 l 218 457 l 236 1043 l 8 1028 z m 224 149 l 224 439 b 392 574 276 506 338 574 b 571 293 472 574 571 464 b 383 42 571 119 514 42 b 224 149 322 42 224 94 z "},"c":{"ha":569,"x_min":0,"x_max":0,"o":"m 15 303 b 344 -18 15 101 146 -17 b 554 172 417 17 532 139 l 535 183 b 383 68 513 150 449 68 b 146 371 229 68 146 201 b 318 647 146 504 204 647 b 444 483 372 647 413 529 b 556 497 492 479 519 482 b 344 669 553 600 454 669 b 15 303 164 642 15 483 z "},"ç":{"ha":569,"x_min":0,"x_max":0,"o":"m 383 68 b 146 371 229 68 146 201 b 318 647 146 504 204 647 b 444 483 372 647 413 529 b 556 497 492 479 519 481 b 344 669 553 600 454 669 b 15 303 164 642 15 483 b 333 -18 15 106 140 -12 l 201 -124 l 206 -129 b 397 -206 240 -129 397 -89 b 301 -337 397 -307 333 -337 b 214 -239 274 -337 214 -287 b 154 -268 192 -244 174 -253 b 297 -350 154 -312 258 -350 b 463 -179 304 -350 463 -315 b 232 -114 463 -67 303 -68 l 379 3 b 432 44 397 15 414 29 b 554 172 488 93 540 151 l 542 181 b 383 68 519 147 449 68 z "},"d":{"ha":725,"x_min":0,"x_max":0,"o":"m 15 308 b 286 -10 15 107 142 -10 b 506 207 347 14 442 124 l 511 207 l 507 0 l 721 0 l 721 8 l 621 31 l 622 431 l 622 1040 l 606 1042 l 390 1028 l 390 1019 l 497 1010 l 497 636 b 357 669 475 650 408 669 b 15 308 246 657 15 525 z m 133 365 b 329 614 133 535 185 614 b 499 406 433 614 496 521 l 494 215 b 335 82 446 153 386 82 b 133 365 254 82 133 211 z "},"ð":{"ha":674,"x_min":0,"x_max":0,"o":"m 406 881 l 488 925 l 525 954 l 518 967 l 388 896 b 100 1042 288 972 181 1019 l 93 1022 b 322 861 174 1010 251 946 l 258 826 l 189 781 l 197 765 l 269 807 l 336 843 b 453 672 378 792 418 732 b 478 614 457 667 474 619 l 435 663 b 360 669 411 667 386 669 b 15 317 276 663 15 518 b 321 -18 15 113 117 -18 b 669 339 385 -11 669 96 l 669 344 b 406 881 668 592 547 767 z m 368 28 b 143 356 275 28 143 150 b 313 615 143 489 179 615 b 542 286 415 615 542 478 b 368 28 542 194 501 28 z "},"e":{"ha":599,"x_min":0,"x_max":0,"o":"m 563 160 b 383 71 528 121 463 71 b 128 363 219 71 131 200 l 571 365 b 314 669 568 576 510 675 b 15 315 133 631 15 496 b 292 -12 15 125 119 -12 b 363 -4 317 -12 338 -11 b 578 146 446 38 518 86 z m 282 631 b 443 410 371 633 443 556 b 438 389 443 404 440 396 l 128 375 b 282 631 128 531 154 626 z "},"é":{"ha":629,"x_min":0,"x_max":0,"o":"m 572 1017 l 476 1003 b 331 754 476 988 331 758 l 369 754 l 608 1001 l 608 1003 b 572 1017 607 1003 572 1017 z m 383 71 b 128 363 219 71 131 200 l 571 365 b 314 669 568 576 510 675 b 15 315 133 631 15 496 b 292 -12 15 125 119 -12 b 363 -4 317 -12 338 -11 b 578 146 446 38 518 86 l 567 156 b 383 71 532 117 463 71 z m 282 631 b 443 410 371 633 443 556 b 438 389 443 404 440 396 l 128 375 b 282 631 128 531 154 626 z "},"ê":{"ha":618,"x_min":0,"x_max":0,"o":"m 336 944 l 485 818 l 507 829 l 351 1017 l 324 1017 l 168 829 l 190 818 z m 582 160 b 403 71 547 121 482 71 b 147 363 239 71 150 200 l 590 365 b 333 669 588 576 529 675 b 35 315 153 631 35 496 b 311 -12 35 125 139 -12 b 382 -4 336 -12 357 -11 b 597 146 465 38 538 86 z m 301 631 b 463 410 390 633 463 556 b 457 389 463 404 460 396 l 147 375 b 301 631 147 531 174 626 z "},"ë":{"ha":599,"x_min":0,"x_max":0,"o":"m 222 861 b 288 928 258 861 288 892 b 222 994 288 964 258 994 b 154 928 185 994 154 964 b 222 861 154 892 185 861 z m 421 861 b 488 928 457 861 488 892 b 421 994 488 964 457 994 b 354 928 385 994 354 964 b 421 861 354 892 385 861 z m 563 160 b 383 71 528 121 463 71 b 128 363 219 71 131 200 l 571 365 b 314 669 568 576 510 675 b 15 315 133 631 15 496 b 292 -12 15 125 119 -12 b 363 -4 317 -12 338 -11 b 578 146 446 38 518 86 z m 282 631 b 443 410 371 633 443 556 b 438 389 443 404 440 396 l 128 375 b 282 631 128 531 154 626 z "},"è":{"ha":599,"x_min":0,"x_max":0,"o":"m 438 754 b 292 1003 404 797 292 988 l 196 1017 b 160 1003 196 1017 161 1003 l 160 1001 l 399 751 z m 567 156 b 383 71 532 117 463 71 b 128 363 219 71 131 200 l 571 365 b 314 669 568 576 510 675 b 15 315 133 631 15 496 b 292 -12 15 125 119 -12 b 363 -4 317 -12 338 -11 b 578 146 446 38 518 86 z m 282 631 b 443 410 371 633 443 556 b 438 389 443 404 440 396 l 128 375 b 282 631 128 531 154 626 z "},"f":{"ha":435,"x_min":0,"x_max":0,"o":"m 35 0 l 343 0 l 343 7 l 251 22 l 256 626 l 403 622 l 456 629 l 456 644 l 256 644 l 258 918 b 349 978 281 957 311 978 b 475 917 397 978 431 951 l 560 1001 b 399 1058 525 1031 449 1054 b 128 711 318 1054 128 815 l 128 646 l 35 640 l 35 621 l 128 621 l 128 22 l 35 7 z "},"g":{"ha":676,"x_min":0,"x_max":0,"o":"m 15 -110 b 296 -315 15 -232 54 -307 b 350 -314 314 -315 332 -315 b 665 -94 401 -314 663 -226 b 351 89 668 49 536 82 b 182 97 317 90 194 96 b 149 126 165 99 149 104 b 192 199 150 163 169 181 b 299 183 224 189 260 183 b 585 446 376 183 585 329 b 506 610 585 513 556 569 b 525 611 511 611 518 611 b 654 585 542 611 631 585 b 699 649 672 586 689 606 l 625 669 b 547 629 625 635 579 629 b 450 643 504 629 482 633 b 311 669 411 660 364 669 b 24 414 226 669 24 554 b 178 204 24 321 81 240 b 88 100 149 172 110 139 b 171 -3 88 56 139 -3 l 179 -3 b 15 -110 126 -39 63 -71 z m 150 440 b 301 646 150 575 208 646 b 458 421 399 646 458 574 b 301 207 458 293 394 207 b 150 440 200 207 150 301 z m 144 -129 b 211 -3 144 -87 164 -46 b 561 -131 438 -4 561 -18 b 308 -282 561 -215 503 -287 b 144 -129 221 -279 144 -222 z "},"h":{"ha":763,"x_min":0,"x_max":0,"o":"m 11 1035 l 106 1011 l 106 22 l 13 7 l 13 0 l 321 0 l 321 7 l 229 22 l 229 503 b 419 574 285 569 385 574 b 532 392 494 574 532 493 l 532 22 l 438 7 l 438 0 l 749 0 l 749 7 l 656 22 l 656 414 b 439 669 656 572 597 661 b 218 513 413 668 279 588 l 213 513 l 225 1040 l 208 1043 l 11 1043 z "},"i":{"ha":331,"x_min":0,"x_max":0,"o":"m 169 871 b 242 944 210 871 242 903 b 169 1017 242 985 210 1017 b 97 944 129 1017 97 985 b 169 871 97 903 129 871 z m 11 0 l 319 0 l 319 7 l 228 22 l 228 650 l 211 653 l 25 653 l 25 644 l 104 629 l 104 22 l 11 7 z "},"í":{"ha":392,"x_min":0,"x_max":0,"o":"m 328 1017 l 232 1003 b 86 754 232 988 119 797 l 125 751 l 364 1001 l 364 1003 b 328 1017 363 1003 328 1017 z m 249 650 l 232 653 l 46 653 l 46 644 l 125 631 l 125 22 l 32 7 l 32 0 l 340 0 l 340 7 l 249 22 z "},"î":{"ha":361,"x_min":0,"x_max":0,"o":"m 179 944 l 328 818 l 350 829 l 194 1017 l 167 1017 l 11 829 l 33 818 z m 243 650 l 226 653 l 40 653 l 40 644 l 119 631 l 119 22 l 26 7 l 26 0 l 335 0 l 335 7 l 243 22 z "},"ï":{"ha":356,"x_min":0,"x_max":0,"o":"m 79 861 b 144 928 115 861 144 892 b 79 994 144 964 115 994 b 11 928 42 994 11 964 b 79 861 11 892 42 861 z m 278 861 b 344 928 314 861 344 892 b 278 994 344 964 314 994 b 211 928 242 994 211 964 b 278 861 211 892 242 861 z m 26 0 l 335 0 l 335 7 l 243 22 l 243 650 l 226 653 l 40 653 l 40 644 l 119 631 l 119 22 l 26 7 z "},"ì":{"ha":390,"x_min":0,"x_max":0,"o":"m 289 754 b 143 1003 289 758 143 988 l 47 1017 b 11 1003 47 1017 13 1003 l 11 1001 l 250 754 z m 288 22 l 288 650 l 271 653 l 85 653 l 85 644 l 164 631 l 164 22 l 71 7 l 71 0 l 379 0 l 379 7 z "},"j":{"ha":244,"x_min":0,"x_max":0,"o":"m 151 874 b 224 947 192 874 224 906 b 151 1019 224 988 192 1019 b 79 947 111 1019 79 988 b 151 874 79 906 111 874 z m -208 -324 b -61 -381 -174 -353 -111 -376 b 192 -17 32 -376 192 -133 l 192 650 l 175 653 l -19 653 l -19 644 l 72 631 l 65 -193 b -11 -300 64 -237 35 -300 b -124 -239 -46 -300 -79 -274 z "},"k":{"ha":700,"x_min":0,"x_max":0,"o":"m 11 0 l 319 0 l 319 7 l 228 22 l 228 321 l 281 369 l 496 22 l 499 22 l 406 7 l 406 0 l 731 0 l 731 7 l 639 22 l 364 442 l 340 422 l 558 621 l 674 644 l 674 653 l 425 653 l 425 644 l 515 622 l 517 622 l 219 340 l 211 340 l 233 1040 l 217 1042 l 11 1042 l 11 1033 l 104 1010 l 104 22 l 11 7 z "},"l":{"ha":328,"x_min":0,"x_max":0,"o":"m 11 0 l 319 0 l 319 7 l 228 22 l 228 1040 l 211 1042 l 11 1028 l 11 1019 l 104 1010 l 104 22 l 11 7 z "},"m":{"ha":1158,"x_min":0,"x_max":0,"o":"m 1040 22 l 1040 414 b 824 669 1040 572 982 661 b 626 522 799 668 690 594 b 422 669 603 613 540 664 b 218 513 396 668 293 588 l 213 513 l 225 650 l 208 653 l 11 653 l 11 644 l 106 621 l 106 22 l 13 7 l 13 0 l 321 0 l 321 7 l 229 22 l 229 503 b 403 574 297 569 368 574 b 515 392 464 574 515 535 l 515 22 l 421 7 l 421 0 l 743 0 l 743 7 l 639 22 l 639 414 b 631 504 639 447 636 476 b 804 574 686 569 769 574 b 917 392 865 574 917 535 l 917 22 l 822 7 l 822 0 l 1144 0 l 1144 7 z "},"n":{"ha":757,"x_min":0,"x_max":0,"o":"m 11 644 l 106 621 l 106 22 l 13 7 l 13 0 l 324 0 l 324 7 l 229 22 l 229 503 b 414 574 299 569 379 574 b 526 392 475 574 526 535 l 526 22 l 432 7 l 432 0 l 743 0 l 743 7 l 650 22 l 650 414 b 433 669 650 572 592 661 b 218 513 407 668 293 588 l 213 513 l 225 650 l 208 653 l 11 653 z "},"ñ":{"ha":833,"x_min":0,"x_max":0,"o":"m 235 825 l 258 825 b 497 888 258 936 399 888 b 622 1040 515 897 622 953 l 599 1040 b 360 979 599 938 507 979 b 235 825 342 969 235 914 z m 11 644 l 106 621 l 106 22 l 13 7 l 13 0 l 324 0 l 324 7 l 229 22 l 229 503 b 414 574 299 569 379 574 b 526 392 475 574 526 535 l 526 22 l 432 7 l 432 0 l 743 0 l 743 7 l 650 22 l 650 414 b 433 669 650 572 592 661 b 218 513 407 668 293 588 l 213 513 l 225 650 l 208 653 l 11 653 z "},"o":{"ha":685,"x_min":0,"x_max":0,"o":"m 669 339 b 360 669 669 543 564 665 b 15 317 276 663 15 518 b 321 -18 15 113 117 -18 b 669 339 385 -11 669 96 z m 368 28 b 143 356 275 28 143 150 b 313 615 143 489 179 615 b 542 286 415 615 542 478 b 368 28 542 194 501 28 z "},"ó":{"ha":833,"x_min":0,"x_max":0,"o":"m 628 1001 l 628 1003 b 592 1017 626 1003 592 1017 l 496 1003 b 350 754 496 988 350 758 l 389 754 z m 360 669 b 15 317 276 663 15 518 b 321 -18 15 113 117 -18 b 669 339 385 -11 669 96 b 360 669 669 543 564 665 z m 368 28 b 143 356 275 28 143 150 b 313 615 143 489 179 615 b 542 286 415 615 542 478 b 368 28 542 194 501 28 z "},"ô":{"ha":833,"x_min":0,"x_max":0,"o":"m 504 919 l 651 818 l 674 829 l 518 1017 l 490 1017 l 335 829 l 357 818 z m 360 669 b 15 317 276 663 15 518 b 321 -18 15 113 117 -18 b 669 339 385 -11 669 96 b 360 669 669 543 564 665 z m 368 28 b 143 356 275 28 143 150 b 313 615 143 489 179 615 b 542 286 415 615 542 478 b 368 28 542 194 501 28 z "},"ö":{"ha":685,"x_min":0,"x_max":0,"o":"m 296 874 b 361 940 332 874 361 904 b 296 1007 361 976 332 1007 b 228 940 258 1007 228 976 b 296 874 228 904 258 874 z m 494 874 b 561 940 531 874 561 904 b 494 1007 561 976 531 1007 b 428 940 458 1007 428 976 b 494 874 428 904 458 874 z m 669 339 b 360 669 669 543 564 665 b 15 317 276 663 15 518 b 321 -18 15 113 117 -18 b 669 339 385 -11 669 96 z m 368 28 b 143 356 275 28 143 150 b 313 615 143 489 179 615 b 542 286 415 615 542 478 b 368 28 542 194 501 28 z "},"ò":{"ha":704,"x_min":0,"x_max":0,"o":"m 447 754 b 301 1003 414 797 301 988 l 206 1017 b 169 1003 206 1017 171 1003 l 169 1001 l 408 751 z m 379 669 b 35 317 296 663 35 518 b 340 -18 35 113 136 -18 b 689 339 404 -11 689 96 b 379 669 689 543 583 665 z m 388 28 b 163 356 294 28 163 150 b 332 615 163 489 199 615 b 561 286 435 615 561 478 b 388 28 561 194 521 28 z "},"ø":{"ha":685,"x_min":0,"x_max":0,"o":"m 471 653 l 494 726 l 433 726 l 414 665 b 360 669 396 668 379 669 b 15 317 276 663 15 518 b 199 1 15 158 76 44 l 179 -58 l 235 -58 l 250 -12 b 321 -18 272 -17 296 -18 b 669 339 385 -11 669 96 b 471 653 669 503 601 613 z m 143 356 b 313 615 143 489 179 615 b 390 592 338 615 364 607 l 231 103 b 143 356 182 158 143 244 z m 368 28 b 275 63 339 28 306 40 l 438 554 b 542 286 496 497 542 401 b 368 28 542 194 501 28 z "},"õ":{"ha":833,"x_min":0,"x_max":0,"o":"m 193 825 l 217 825 b 456 888 217 936 357 888 b 581 1040 474 897 581 953 l 557 1040 b 318 979 557 938 465 979 b 193 825 300 969 193 914 z m 669 339 b 360 669 669 543 564 665 b 15 317 276 663 15 518 b 321 -18 15 113 117 -18 b 669 339 385 -11 669 96 z m 368 28 b 143 356 275 28 143 150 b 313 615 143 489 179 615 b 542 286 415 615 542 478 b 368 28 542 194 501 28 z "},"œ":{"ha":1139,"x_min":0,"x_max":0,"o":"m 1103 160 b 924 71 1068 121 1003 71 b 669 336 769 71 681 186 b 669 339 669 336 669 338 l 669 363 l 1111 365 b 854 669 1108 576 1050 675 b 626 532 757 649 678 600 b 360 669 576 618 488 667 b 15 317 276 663 15 518 b 321 -18 15 113 117 -18 b 592 139 364 -14 503 35 b 832 -12 636 46 719 -12 b 903 -4 857 -12 878 -11 b 1118 146 986 38 1058 86 z m 822 631 b 983 410 911 633 983 556 b 978 389 983 404 981 396 l 668 375 l 668 378 b 822 631 669 532 694 626 z m 368 28 b 143 356 275 28 143 150 b 313 615 143 489 179 615 b 542 286 415 615 542 478 b 368 28 542 194 501 28 z "},"p":{"ha":746,"x_min":0,"x_max":0,"o":"m 11 -347 l 360 -347 l 358 -337 l 250 -312 l 250 -4 b 378 -19 285 -14 326 -19 b 715 350 471 10 715 133 b 463 669 715 569 607 669 b 238 442 399 644 301 524 l 233 442 l 250 653 l 35 653 l 35 646 l 128 629 l 126 229 l 126 -311 l 11 -337 z m 250 151 l 250 439 b 418 574 303 506 364 574 b 597 293 499 574 597 464 b 410 42 597 119 540 42 b 250 151 349 42 250 103 z "},"þ":{"ha":833,"x_min":0,"x_max":0,"o":""},"q":{"ha":681,"x_min":0,"x_max":0,"o":"m 35 308 b 306 -10 35 107 161 -10 b 501 182 367 14 440 101 l 506 182 l 490 -312 l 382 -337 l 381 -347 l 729 -347 l 729 -337 l 614 -311 l 614 229 l 613 657 l 599 657 l 528 631 b 376 658 486 647 433 658 b 35 308 265 646 35 525 z m 153 365 b 349 614 153 542 210 614 b 490 475 424 614 490 540 l 489 183 b 354 85 447 132 399 85 b 153 365 274 85 153 211 z "},"r":{"ha":489,"x_min":0,"x_max":0,"o":"m 11 0 l 325 0 l 325 7 l 228 22 l 228 503 b 367 550 282 569 332 563 b 431 506 388 542 408 531 l 514 608 b 386 663 489 633 447 660 b 217 513 360 654 276 588 l 211 513 l 224 650 l 207 653 l 38 653 l 38 644 l 104 628 l 104 22 l 11 7 z "},"s":{"ha":536,"x_min":0,"x_max":0,"o":"m 40 65 b 247 -19 64 42 174 -19 b 496 200 394 6 496 69 b 128 542 499 374 128 415 b 225 640 128 597 157 636 b 376 575 292 639 338 614 l 461 476 l 471 476 l 442 619 b 264 669 376 644 301 668 b 40 465 128 644 40 561 b 393 140 40 289 393 271 b 282 7 393 42 342 7 b 118 85 229 8 160 47 l 53 228 l 43 226 z "},"ß":{"ha":876,"x_min":0,"x_max":0,"o":"m 468 542 b 672 804 468 636 672 703 b 399 1058 672 963 553 1046 b 128 711 331 1039 128 815 l 128 646 l 35 640 l 35 621 l 128 621 l 128 22 l 35 7 l 35 0 l 343 0 l 343 7 l 251 22 l 258 918 b 349 978 281 957 311 978 b 550 797 438 978 550 938 b 381 465 550 636 381 597 b 733 140 381 289 733 271 b 622 7 733 42 682 7 b 458 85 569 7 500 47 l 393 228 l 383 226 l 381 65 b 588 -19 404 42 514 -19 b 836 200 735 6 836 69 b 468 542 836 374 468 415 z "},"t":{"ha":446,"x_min":0,"x_max":0,"o":"m 7 613 l 100 610 l 104 610 l 110 147 b 275 -18 119 46 168 -10 b 453 111 344 25 381 53 l 444 119 b 306 63 378 74 350 63 b 231 175 265 64 229 103 l 228 607 l 392 603 l 444 610 l 444 650 l 221 650 l 226 825 l 210 826 l 117 672 l 7 626 z "},"u":{"ha":760,"x_min":0,"x_max":0,"o":"m 11 622 l 110 614 l 110 235 b 326 -17 110 76 168 -8 b 542 150 353 -15 481 74 l 547 150 l 535 3 l 551 0 l 749 0 l 749 8 l 654 32 l 654 653 l 435 653 l 435 646 l 531 631 l 531 160 b 346 79 475 93 381 79 b 233 260 285 79 233 117 l 233 653 l 11 629 z "},"ú":{"ha":833,"x_min":0,"x_max":0,"o":"m 628 1001 l 628 1003 b 592 1017 626 1003 592 1017 l 496 1003 b 350 754 496 988 350 758 l 389 754 z m 654 32 l 654 653 l 435 653 l 435 646 l 531 631 l 531 160 b 346 79 475 93 381 79 b 233 260 285 79 233 117 l 233 653 l 11 629 l 11 622 l 110 614 l 110 235 b 326 -17 110 76 168 -8 b 542 150 353 -15 481 74 l 547 150 l 535 3 l 551 0 l 749 0 l 749 8 z "},"û":{"ha":833,"x_min":0,"x_max":0,"o":"m 504 919 l 651 818 l 674 829 l 518 1017 l 490 1017 l 335 829 l 357 818 z m 654 32 l 654 653 l 435 653 l 435 646 l 531 631 l 531 160 b 346 79 475 93 381 79 b 233 260 285 79 233 117 l 233 653 l 11 629 l 11 622 l 110 614 l 110 235 b 326 -17 110 76 168 -8 b 542 150 353 -15 481 74 l 547 150 l 535 3 l 551 0 l 749 0 l 749 8 z "},"ü":{"ha":833,"x_min":0,"x_max":0,"o":"m 326 874 b 392 940 363 874 392 904 b 326 1007 392 976 363 1007 b 258 940 289 1007 258 976 b 326 874 258 904 289 874 z m 525 874 b 592 940 561 874 592 904 b 525 1007 592 976 561 1007 b 458 940 489 1007 458 976 b 525 874 458 904 489 874 z m 11 622 l 110 614 l 110 235 b 326 -17 110 76 168 -8 b 542 150 353 -15 481 74 l 547 150 l 535 3 l 551 0 l 749 0 l 749 8 l 654 32 l 654 653 l 435 653 l 435 646 l 531 631 l 531 160 b 346 79 475 93 381 79 b 233 260 285 79 233 117 l 233 653 l 11 629 z "},"ù":{"ha":833,"x_min":0,"x_max":0,"o":"m 600 754 b 454 1003 600 758 454 988 l 358 1017 b 322 1003 358 1017 324 1003 l 322 1001 l 561 754 z m 654 32 l 654 653 l 435 653 l 435 646 l 531 631 l 531 160 b 346 79 475 93 381 79 b 233 260 285 79 233 117 l 233 653 l 11 629 l 11 622 l 110 614 l 110 235 b 326 -17 110 76 168 -8 b 542 150 353 -15 481 74 l 547 150 l 535 3 l 551 0 l 749 0 l 749 8 z "},"v":{"ha":617,"x_min":0,"x_max":0,"o":"m 693 653 l 465 653 l 465 644 l 554 622 l 556 622 l 364 38 l 364 39 l 175 629 l 260 647 l 260 653 l -42 653 l -42 647 l 42 629 l 247 -10 l 350 -3 l 379 -3 l 583 621 l 585 621 l 693 644 z "},"w":{"ha":1001,"x_min":0,"x_max":0,"o":"m -42 647 l 42 629 l 247 -10 l 350 -3 l 379 -3 l 372 18 l 501 442 l 656 -10 l 754 -3 l 778 -3 l 969 621 l 1078 644 l 1078 653 l 850 653 l 850 644 l 946 622 l 763 38 l 567 653 l 431 653 l 490 478 l 360 51 l 175 629 l 260 647 l 260 653 l -42 653 z "},"ẃ":{"ha":833,"x_min":0,"x_max":0,"o":"m 628 1001 l 628 1003 b 592 1017 626 1003 592 1017 l 496 1003 b 350 754 496 988 350 758 l 389 754 z m 850 653 l 850 644 l 946 622 l 763 38 l 567 653 l 431 653 l 490 478 l 360 51 l 175 629 l 260 647 l 260 653 l -42 653 l -42 647 l 42 629 l 247 -10 l 350 -3 l 379 -3 l 372 18 l 501 442 l 656 -10 l 754 -3 l 778 -3 l 969 621 l 1078 644 l 1078 653 z "},"ŵ":{"ha":833,"x_min":0,"x_max":0,"o":"m 504 919 l 651 818 l 674 829 l 518 1017 l 490 1017 l 335 829 l 357 818 z m 850 653 l 850 644 l 946 622 l 763 38 l 567 653 l 431 653 l 490 478 l 360 51 l 175 629 l 260 647 l 260 653 l -42 653 l -42 647 l 42 629 l 247 -10 l 350 -3 l 379 -3 l 372 18 l 501 442 l 656 -10 l 754 -3 l 778 -3 l 969 621 l 1078 644 l 1078 653 z "},"ẅ":{"ha":1001,"x_min":0,"x_max":0,"o":"m 451 874 b 517 940 488 874 517 904 b 451 1007 517 976 488 1007 b 383 940 414 1007 383 976 b 451 874 383 904 414 874 z m 650 874 b 717 940 686 874 717 904 b 650 1007 717 976 686 1007 b 583 940 614 1007 583 976 b 650 874 583 904 614 874 z m -42 647 l 42 629 l 247 -10 l 350 -3 l 379 -3 l 372 18 l 501 442 l 656 -10 l 754 -3 l 778 -3 l 969 621 l 1078 644 l 1078 653 l 850 653 l 850 644 l 946 622 l 763 38 l 567 653 l 431 653 l 490 478 l 360 51 l 175 629 l 260 647 l 260 653 l -42 653 z "},"ẁ":{"ha":833,"x_min":0,"x_max":0,"o":"m 600 754 b 454 1003 600 758 454 988 l 358 1017 b 322 1003 358 1017 324 1003 l 322 1001 l 561 754 z m 850 653 l 850 644 l 946 622 l 763 38 l 567 653 l 431 653 l 490 478 l 360 51 l 175 629 l 260 647 l 260 653 l -42 653 l -42 647 l 42 629 l 247 -10 l 350 -3 l 379 -3 l 372 18 l 501 442 l 656 -10 l 754 -3 l 778 -3 l 969 621 l 1078 644 l 1078 653 z "},"x":{"ha":657,"x_min":0,"x_max":0,"o":"m -28 0 l 200 0 l 200 8 l 117 31 l 115 31 l 288 278 l 457 19 l 388 6 l 388 0 l 685 0 l 685 6 l 603 22 l 371 374 l 546 625 l 661 644 l 661 653 l 433 653 l 433 644 l 517 625 l 357 396 l 201 632 l 274 647 l 274 653 l -24 653 l -24 647 l 57 631 l 272 301 l 88 29 l -28 8 z "},"y":{"ha":671,"x_min":0,"x_max":0,"o":"m -14 646 l 50 636 l 296 25 l 392 40 l 294 -211 b 214 -272 272 -267 242 -272 b 103 -218 193 -272 147 -250 l 39 -321 b 143 -364 74 -339 121 -364 b 321 -212 185 -353 299 -299 l 608 621 l 726 644 l 726 653 l 479 653 l 479 644 l 575 622 l 404 83 l 403 81 l 404 103 l 186 635 l 253 647 l 253 653 l -14 653 z "},"ý":{"ha":833,"x_min":0,"x_max":0,"o":"m 628 1001 l 628 1003 b 592 1017 626 1003 592 1017 l 496 1003 b 350 754 496 988 350 758 l 389 754 z m 479 653 l 479 644 l 575 622 l 404 83 l 403 81 l 404 103 l 186 635 l 253 647 l 253 653 l -14 653 l -14 646 l 50 636 l 296 25 l 392 40 l 294 -211 b 214 -272 272 -267 242 -272 b 103 -218 193 -272 147 -250 l 39 -321 b 143 -364 74 -339 121 -364 b 321 -212 185 -353 299 -299 l 608 621 l 726 644 l 726 653 z "},"ŷ":{"ha":671,"x_min":0,"x_max":0,"o":"m 369 919 l 517 818 l 539 829 l 383 1017 l 356 1017 l 200 829 l 222 818 z m 479 653 l 479 644 l 575 622 l 404 83 l 403 81 l 404 103 l 186 635 l 253 647 l 253 653 l -14 653 l -14 646 l 50 636 l 296 25 l 392 40 l 294 -211 b 214 -272 272 -267 242 -272 b 103 -218 193 -272 147 -250 l 39 -321 b 143 -364 74 -339 121 -364 b 321 -212 185 -353 299 -299 l 608 621 l 726 644 l 726 653 z "},"ÿ":{"ha":833,"x_min":0,"x_max":0,"o":"m 326 874 b 392 940 363 874 392 904 b 326 1007 392 976 363 1007 b 258 940 289 1007 258 976 b 326 874 258 904 289 874 z m 525 874 b 592 940 561 874 592 904 b 525 1007 592 976 561 1007 b 458 940 489 1007 458 976 b 525 874 458 904 489 874 z m -14 646 l 50 636 l 296 25 l 392 40 l 294 -211 b 214 -272 272 -267 242 -272 b 103 -218 193 -272 147 -250 l 39 -321 b 143 -364 74 -339 121 -364 b 321 -212 185 -353 299 -299 l 608 621 l 726 644 l 726 653 l 479 653 l 479 644 l 575 622 l 404 83 l 403 81 l 404 103 l 186 635 l 253 647 l 253 653 l -14 653 z "},"ỳ":{"ha":833,"x_min":0,"x_max":0,"o":"m 600 754 b 454 1003 600 758 454 988 l 358 1017 b 322 1003 358 1017 324 1003 l 322 1001 l 561 754 z m 479 653 l 479 644 l 575 622 l 404 83 l 403 81 l 404 103 l 186 635 l 253 647 l 253 653 l -14 653 l -14 646 l 50 636 l 296 25 l 392 40 l 294 -211 b 214 -272 272 -267 242 -272 b 103 -218 193 -272 147 -250 l 39 -321 b 143 -364 74 -339 121 -364 b 321 -212 185 -353 299 -299 l 608 621 l 726 644 l 726 653 z "},"z":{"ha":601,"x_min":0,"x_max":0,"o":"m 33 19 l 50 0 l 553 0 l 556 199 l 543 201 l 474 15 l 188 15 l 568 636 l 557 653 l 71 653 l 71 644 l 65 468 l 78 465 l 150 638 l 429 638 z "},"А":{"ha":917,"x_min":0,"x_max":0,"o":"m 867 25 l 865 25 l 561 979 l 468 972 l 315 972 l 315 964 l 419 944 l 93 31 l -21 8 l -21 0 l 257 0 l 257 8 l 135 29 l 244 342 l 617 342 l 715 22 l 622 8 l 622 0 l 972 0 l 972 8 z m 254 368 l 443 908 l 443 907 l 446 893 l 608 368 z "},"Ц":{"ha":833,"x_min":0,"x_max":0,"o":""},"⁄":{"ha":717,"x_min":0,"x_max":0,"o":"m 494 1042 l 138 -58 l 217 -58 l 579 1042 z "},"*":{"ha":781,"x_min":0,"x_max":0,"o":"m 700 515 b 408 642 604 574 532 571 b 699 750 531 706 603 697 b 697 804 711 757 706 789 b 647 843 689 818 660 850 b 396 656 549 789 517 728 b 447 964 401 794 447 854 b 400 989 447 979 417 989 b 342 965 383 989 342 981 b 379 658 342 856 375 796 b 133 843 264 729 229 790 b 83 804 121 850 92 818 b 82 750 75 789 69 757 b 372 642 178 697 250 706 b 81 515 249 571 176 574 b 90 454 67 507 82 468 b 135 425 99 439 121 417 b 379 625 229 482 260 551 b 342 311 375 483 342 422 b 400 289 342 296 383 289 b 447 313 417 289 447 297 b 396 628 447 424 400 485 b 646 425 521 553 550 482 b 690 454 660 417 682 439 b 700 515 699 468 714 507 z "},"\\":{"ha":792,"x_min":0,"x_max":0,"o":"m 222 1042 l 138 1042 l 500 -58 l 579 -58 z "},"·":{"ha":792,"x_min":0,"x_max":0,"o":""},"•":{"ha":792,"x_min":0,"x_max":0,"o":"m 381 186 b 590 400 499 186 590 281 b 381 607 590 513 499 607 b 172 400 267 607 172 513 b 381 186 172 281 267 186 z "},":":{"ha":375,"x_min":0,"x_max":0,"o":"m 189 510 b 260 582 229 510 260 542 b 189 653 260 621 229 653 b 118 582 150 653 118 621 b 189 510 118 542 150 510 z m 186 -12 b 257 60 226 -12 257 19 b 186 131 257 99 226 131 b 115 60 147 131 115 99 b 186 -12 115 19 147 -12 z "},",":{"ha":172,"x_min":0,"x_max":0,"o":"m 14 47 b 75 -28 67 47 75 7 b -1 -158 75 -71 28 -125 l 6 -167 b 169 49 29 -142 169 38 b 99 136 169 94 131 136 z "},"…":{"ha":792,"x_min":0,"x_max":0,"o":""},"!":{"ha":278,"x_min":0,"x_max":0,"o":"m 119 231 l 151 231 b 217 963 151 524 217 686 b 164 989 217 978 182 989 l 69 964 b 119 231 69 686 119 524 z m 132 -12 b 204 61 172 -12 204 19 b 132 133 204 101 172 133 b 60 61 92 133 60 101 b 132 -12 60 19 92 -12 z "},"¡":{"ha":792,"x_min":0,"x_max":0,"o":"m 386 658 b 314 585 346 658 314 626 b 386 513 314 544 346 513 b 458 585 426 513 458 544 b 386 658 458 626 426 658 z m 374 415 b 324 -318 374 122 324 -40 l 418 -343 b 471 -317 436 -343 471 -332 b 406 415 471 -40 406 122 z "},"#":{"ha":792,"x_min":0,"x_max":0,"o":""},".":{"ha":292,"x_min":0,"x_max":0,"o":"m 114 -12 b 185 60 154 -12 185 19 b 114 131 185 99 154 131 b 43 60 75 131 43 99 b 114 -12 43 19 75 -12 z "},"?":{"ha":522,"x_min":0,"x_max":0,"o":"m 15 817 b 265 986 96 915 242 986 b 507 797 365 986 507 907 b 221 472 507 610 221 553 b 282 353 221 419 256 353 l 285 350 l 186 271 b 125 457 178 271 125 371 b 356 767 147 457 356 592 b 226 914 356 864 296 914 b 33 814 154 914 71 861 z m 157 61 b 229 -12 157 19 189 -12 b 301 61 269 -12 301 19 b 229 133 301 101 269 133 b 157 61 189 133 157 101 z "},"¿":{"ha":792,"x_min":0,"x_max":0,"o":"m 475 592 b 403 665 475 633 443 665 b 331 592 363 665 331 633 b 403 519 331 551 363 519 b 475 592 443 519 475 551 z m 617 -164 b 367 -333 536 -262 390 -333 b 125 -144 267 -333 125 -254 b 411 181 125 43 411 100 b 350 300 411 233 376 300 l 347 303 l 446 382 b 507 196 454 382 507 282 b 276 -114 485 196 276 61 b 406 -261 276 -211 336 -261 b 599 -161 478 -261 561 -208 z "},"\"":{"ha":444,"x_min":0,"x_max":0,"o":"m 207 867 b 146 942 154 867 146 907 b 240 1085 146 983 211 1051 l 229 1094 b 51 865 206 1069 51 876 b 122 778 51 819 90 778 z m 374 867 b 313 942 321 867 313 907 b 407 1085 313 983 378 1051 l 396 1094 b 218 865 372 1069 218 876 b 289 778 218 819 257 778 z "},"'":{"ha":168,"x_min":0,"x_max":0,"o":"m -15 922 b 46 847 38 922 46 882 b -21 704 46 806 8 738 l -10 694 b 140 924 14 719 140 913 b 69 1011 140 969 101 1011 z "},";":{"ha":375,"x_min":0,"x_max":0,"o":"m 189 510 b 260 582 229 510 260 542 b 189 653 260 621 229 653 b 118 582 150 653 118 621 b 189 510 118 542 150 510 z m 126 47 b 188 -28 179 47 188 7 b 107 -157 188 -56 136 -124 l 118 -167 b 282 49 142 -142 282 38 b 211 136 282 94 243 136 z "},"/":{"ha":717,"x_min":0,"x_max":0,"o":"m 494 1042 l 138 -58 l 217 -58 l 579 1042 z "},"_":{"ha":619,"x_min":0,"x_max":0,"o":"m 42 -31 l 42 -78 l 578 -78 l 578 -31 z "},"—":{"ha":1058,"x_min":0,"x_max":0,"o":"m 42 463 l 42 429 l 1017 429 l 1017 463 z "},"–":{"ha":599,"x_min":0,"x_max":0,"o":"m 42 463 l 42 429 l 557 429 l 557 463 z "},"-":{"ha":454,"x_min":0,"x_max":0,"o":"m 42 440 l 42 369 l 413 369 l 413 439 z "},"«":{"ha":833,"x_min":0,"x_max":0,"o":""},"»":{"ha":833,"x_min":0,"x_max":0,"o":""},"‹":{"ha":833,"x_min":0,"x_max":0,"o":""},"›":{"ha":833,"x_min":0,"x_max":0,"o":""},"„":{"ha":833,"x_min":0,"x_max":0,"o":"m 99 136 l 14 47 b 75 -28 67 47 75 7 b -1 -158 75 -71 28 -125 l 6 -167 b 169 49 29 -142 169 38 b 99 136 169 94 131 136 z "},"“":{"ha":381,"x_min":0,"x_max":0,"o":"m 138 856 b 76 931 85 856 76 896 b 157 1032 76 958 128 999 l 146 1042 b -18 854 122 1017 -18 865 b 53 767 -18 808 21 767 z m 332 856 b 271 931 279 856 271 896 b 351 1032 271 958 322 999 l 340 1042 b 176 854 317 1017 176 865 b 247 767 176 808 215 767 z "},"”":{"ha":444,"x_min":0,"x_max":0,"o":"m 1 867 l 86 778 b 157 865 118 778 157 819 b -21 1094 157 876 3 1069 l -32 1085 b 63 942 -3 1051 63 983 b 1 867 63 907 54 867 z m 168 867 l 253 778 b 324 865 285 778 324 819 b 146 1094 324 876 169 1069 l 135 1085 b 229 942 164 1051 229 983 b 168 867 229 907 221 867 z "},"‘":{"ha":139,"x_min":0,"x_max":0,"o":"m 158 856 b 97 931 106 856 97 896 b 178 1032 97 958 149 999 l 167 1042 b 3 854 143 1017 3 865 b 74 767 3 808 42 767 z "},"’":{"ha":208,"x_min":0,"x_max":0,"o":"m 31 975 b 92 900 83 975 92 935 b -3 757 92 858 26 790 l 8 747 b 186 976 32 772 186 965 b 115 1064 186 1022 147 1064 z "},"‚":{"ha":833,"x_min":0,"x_max":0,"o":"m 14 47 b 75 -28 67 47 75 7 b -1 -158 75 -71 28 -125 l 6 -167 b 169 49 29 -142 169 38 b 99 136 169 94 131 136 z "}," ":{"ha":333,"x_min":0,"x_max":0,"o":""},"¢":{"ha":568,"x_min":0,"x_max":0,"o":"m 383 68 b 247 114 329 68 283 85 l 397 568 b 444 483 415 538 431 503 b 556 497 492 479 519 482 b 426 656 554 574 499 631 l 496 867 l 489 867 l 472 861 l 407 661 b 344 669 388 667 365 669 b 15 303 164 642 15 483 b 193 10 15 158 82 57 l 118 -221 l 129 -233 l 133 -233 l 211 4 b 344 -18 251 -10 296 -18 b 554 172 417 17 532 139 l 535 183 b 383 68 513 150 449 68 z m 146 371 b 318 647 146 504 204 647 b 383 592 343 647 364 622 l 232 126 b 146 371 175 182 146 269 z "},"¤":{"ha":833,"x_min":0,"x_max":0,"o":""},"$":{"ha":833,"x_min":0,"x_max":0,"o":"m 307 429 l 308 685 b 439 617 367 672 424 643 l 518 513 l 529 513 l 499 674 b 308 718 457 706 390 718 l 308 781 l 290 781 l 288 715 l 288 714 b 75 519 154 685 75 618 b 286 319 75 433 185 376 l 283 11 b 169 79 232 21 193 49 l 100 244 l 90 244 l 69 72 b 283 -19 93 47 206 -15 l 283 -85 l 297 -97 l 303 -97 l 303 -17 b 553 215 454 11 553 81 b 307 429 554 307 419 363 z m 158 601 b 267 689 158 661 194 685 b 288 688 274 689 281 689 l 286 442 b 158 601 215 485 158 535 z m 328 6 b 304 7 319 6 311 7 l 306 307 b 450 151 383 263 450 215 b 328 6 450 46 392 6 z "},"€":{"ha":861,"x_min":0,"x_max":0,"o":"m 586 160 b 400 81 563 126 465 81 b 163 296 239 81 176 147 l 457 293 l 469 304 l 469 308 l 161 314 b 160 363 160 329 160 346 l 457 360 l 469 369 l 469 375 l 160 379 b 347 653 164 511 238 653 b 565 469 447 653 529 556 l 579 472 l 549 653 b 374 675 504 668 436 675 b 43 381 217 651 79 529 l -15 381 l -15 367 l 40 364 b 35 314 38 347 35 331 l -15 311 l -15 297 l 35 297 b 361 -17 39 101 174 -15 b 597 150 432 19 576 117 z "},"£":{"ha":833,"x_min":0,"x_max":0,"o":"m 64 422 l 260 422 b 288 279 278 376 289 328 b 94 -54 285 210 199 113 l 129 -54 l 167 4 b 597 -40 317 90 497 7 l 651 18 b 783 190 717 89 782 169 b 722 306 782 256 760 296 l 646 190 b 690 140 672 178 688 161 b 640 33 693 124 679 64 b 206 61 525 63 285 119 l 204 65 b 397 422 290 200 397 371 l 635 422 l 649 449 l 394 449 b 282 782 392 524 282 690 b 454 921 282 893 326 921 b 611 825 533 921 611 865 l 615 819 l 697 933 b 488 992 671 975 558 992 l 469 992 b 150 715 378 990 150 750 b 249 449 150 636 208 546 l 75 449 z "},"¥":{"ha":833,"x_min":0,"x_max":0,"o":""},"+":{"ha":833,"x_min":0,"x_max":0,"o":"m 718 439 l 415 439 l 415 743 l 344 743 l 344 440 l 42 440 l 42 369 l 344 369 l 344 67 l 414 67 l 414 369 l 718 369 z "},"−":{"ha":833,"x_min":0,"x_max":0,"o":""},"×":{"ha":833,"x_min":0,"x_max":0,"o":""},"÷":{"ha":833,"x_min":0,"x_max":0,"o":""},"=":{"ha":801,"x_min":0,"x_max":0,"o":"m 69 510 l 69 439 l 746 439 l 746 508 z m 69 288 l 69 217 l 746 217 l 746 286 z "},"≠":{"ha":833,"x_min":0,"x_max":0,"o":""},">":{"ha":529,"x_min":0,"x_max":0,"o":"m 514 450 l 510 450 l 86 657 l 15 611 l 439 410 l 15 203 l 81 160 l 510 364 l 513 364 z "},"<":{"ha":529,"x_min":0,"x_max":0,"o":"m 514 611 l 443 657 l 19 450 l 15 450 l 17 364 l 19 364 l 449 160 l 514 203 l 90 410 z "},"≥":{"ha":833,"x_min":0,"x_max":0,"o":""},"≤":{"ha":833,"x_min":0,"x_max":0,"o":""},"±":{"ha":833,"x_min":0,"x_max":0,"o":""},"≈":{"ha":833,"x_min":0,"x_max":0,"o":""},"~":{"ha":833,"x_min":0,"x_max":0,"o":""},"¬":{"ha":833,"x_min":0,"x_max":0,"o":""},"∅":{"ha":833,"x_min":0,"x_max":0,"o":""},"∞":{"ha":833,"x_min":0,"x_max":0,"o":""},"∫":{"ha":833,"x_min":0,"x_max":0,"o":""},"∏":{"ha":833,"x_min":0,"x_max":0,"o":""},"∑":{"ha":833,"x_min":0,"x_max":0,"o":""},"√":{"ha":833,"x_min":0,"x_max":0,"o":""},"∂":{"ha":833,"x_min":0,"x_max":0,"o":""},"%":{"ha":986,"x_min":0,"x_max":0,"o":"m 661 1042 l 221 -58 l 300 -58 l 746 1042 z m 406 806 b 239 983 406 915 349 982 b 51 792 193 981 51 901 b 218 611 51 682 106 611 b 406 806 251 615 406 674 z m 243 635 b 126 814 192 635 126 703 b 213 954 126 886 140 954 b 329 776 268 954 329 879 b 243 635 329 726 315 635 z m 933 181 b 767 358 933 290 876 357 b 579 167 721 356 579 276 b 746 -14 579 57 633 -14 b 933 181 779 -10 933 49 z m 771 10 b 654 189 719 10 654 78 b 740 329 654 261 668 329 b 857 151 796 329 857 254 b 771 10 857 101 843 10 z "},"‰":{"ha":1401,"x_min":0,"x_max":0,"o":"m 661 1042 l 221 -58 l 300 -58 l 746 1042 z m 406 806 b 239 983 406 915 349 982 b 51 792 193 981 51 901 b 218 611 51 682 106 611 b 406 806 251 615 406 674 z m 243 635 b 126 814 192 635 126 703 b 213 954 126 886 140 954 b 329 776 268 954 329 879 b 243 635 329 726 315 635 z m 933 181 b 767 358 933 290 876 357 b 579 167 721 356 579 276 b 746 -14 579 57 633 -14 b 933 181 779 -10 933 49 z m 1350 181 b 1183 358 1350 290 1293 357 b 996 167 1138 356 996 276 b 1163 -14 996 57 1050 -14 b 1350 181 1196 -10 1350 49 z m 771 10 b 654 189 719 10 654 78 b 740 329 654 261 668 329 b 857 151 796 329 857 254 b 771 10 857 101 843 10 z m 1188 10 b 1071 189 1136 10 1071 78 b 1157 329 1071 261 1085 329 b 1274 151 1213 329 1274 254 b 1188 10 1274 101 1260 10 z "},"↑":{"ha":833,"x_min":0,"x_max":0,"o":""},"↗":{"ha":833,"x_min":0,"x_max":0,"o":""},"→":{"ha":833,"x_min":0,"x_max":0,"o":""},"↘":{"ha":833,"x_min":0,"x_max":0,"o":""},"↓":{"ha":833,"x_min":0,"x_max":0,"o":""},"↙":{"ha":833,"x_min":0,"x_max":0,"o":""},"←":{"ha":833,"x_min":0,"x_max":0,"o":""},"↖":{"ha":833,"x_min":0,"x_max":0,"o":""},"↔":{"ha":833,"x_min":0,"x_max":0,"o":""},"↕":{"ha":833,"x_min":0,"x_max":0,"o":""},"◊":{"ha":833,"x_min":0,"x_max":0,"o":""},"@":{"ha":833,"x_min":0,"x_max":0,"o":""},"&":{"ha":833,"x_min":0,"x_max":0,"o":"m 1 283 b 333 -18 1 89 139 -18 b 489 92 394 17 442 53 b 571 0 517 58 544 26 l 696 0 l 832 124 l 819 138 b 707 44 804 124 725 44 b 586 178 692 44 644 97 l 775 611 l 924 636 l 924 644 l 585 644 l 585 636 l 738 613 b 563 210 683 472 585 267 b 229 867 421 408 229 732 b 275 942 229 889 251 917 b 317 947 289 944 303 947 b 474 851 396 947 474 892 l 478 846 l 560 932 b 350 990 533 974 419 990 b 299 985 325 990 307 989 l 106 810 b 192 550 106 750 139 656 b 1 283 111 489 1 385 z m 110 342 b 200 535 110 429 149 485 b 476 107 272 393 378 232 b 386 65 449 83 419 65 b 110 342 293 65 110 149 z "},"¶":{"ha":833,"x_min":0,"x_max":0,"o":""},"§":{"ha":833,"x_min":0,"x_max":0,"o":""},"©":{"ha":833,"x_min":0,"x_max":0,"o":""},"®":{"ha":833,"x_min":0,"x_max":0,"o":""},"™":{"ha":2094,"x_min":0,"x_max":0,"o":"m 760 978 b 678 972 742 975 692 972 l 139 972 b 57 978 125 972 75 975 l 39 978 l 7 715 l 15 715 b 163 946 35 756 110 890 l 338 946 l 338 50 l 175 8 l 175 0 l 639 0 l 639 8 l 476 50 l 476 946 l 654 946 b 801 715 707 890 782 756 l 810 715 l 778 978 z m 1951 25 l 1939 938 l 2050 954 l 2050 972 l 1865 972 l 1801 975 l 1801 972 l 1481 208 l 1481 213 l 1157 976 l 1026 972 l 863 972 l 863 954 l 985 936 l 979 32 l 851 8 l 851 0 l 1163 0 l 1163 8 l 1022 33 l 1021 922 l 1408 -3 l 1432 -3 l 1803 889 l 1815 25 l 1707 8 l 1707 0 l 2060 0 l 2060 8 z "},"°":{"ha":833,"x_min":0,"x_max":0,"o":""},"|":{"ha":833,"x_min":0,"x_max":0,"o":""},"¦":{"ha":833,"x_min":0,"x_max":0,"o":""},"†":{"ha":833,"x_min":0,"x_max":0,"o":""},"‡":{"ha":833,"x_min":0,"x_max":0,"o":""},"^":{"ha":792,"x_min":0,"x_max":0,"o":""},"̈":{"ha":0,"x_min":0,"x_max":0,"o":"m -507 874 b -442 940 -471 874 -442 904 b -507 1007 -442 976 -471 1007 b -575 940 -544 1007 -575 976 b -507 874 -575 904 -544 874 z m -308 874 b -242 940 -272 874 -242 904 b -308 1007 -242 976 -272 1007 b -375 940 -344 1007 -375 976 b -308 874 -375 904 -344 874 z "},"̇":{"ha":0,"x_min":0,"x_max":0,"o":""},"̀":{"ha":0,"x_min":0,"x_max":0,"o":"m -379 1003 l -475 1017 b -511 1003 -475 1017 -510 1003 l -511 1001 l -272 754 l -233 754 b -379 1003 -233 758 -379 988 z "},"́":{"ha":0,"x_min":0,"x_max":0,"o":"m -242 1017 l -337 1003 b -483 754 -337 988 -483 758 l -444 754 l -206 1001 l -206 1003 b -242 1017 -207 1003 -242 1017 z "},"̂":{"ha":0,"x_min":0,"x_max":0,"o":"m -160 829 l -315 1017 l -343 1017 l -499 829 l -476 818 l -329 919 l -182 818 z "},"̊":{"ha":0,"x_min":0,"x_max":0,"o":"m -451 739 b -335 857 -387 739 -335 792 b -451 974 -335 921 -387 974 b -569 857 -517 974 -569 921 b -451 739 -569 792 -517 739 z m -451 781 b -517 858 -492 781 -517 817 b -451 933 -517 896 -492 933 b -387 858 -412 933 -387 896 b -451 781 -387 817 -412 781 z "},"̃":{"ha":0,"x_min":0,"x_max":0,"o":"m -404 825 l -381 825 b -142 888 -381 936 -240 888 b -17 1040 -124 897 -17 953 l -40 1040 b -279 979 -40 938 -132 979 b -404 825 -297 969 -404 914 z "},"̧":{"ha":0,"x_min":0,"x_max":0,"o":"m -393 53 l -612 -124 l -608 -129 b -417 -206 -574 -129 -417 -89 b -512 -337 -417 -307 -481 -337 b -600 -239 -540 -337 -600 -287 b -660 -268 -622 -244 -640 -253 b -517 -350 -660 -312 -556 -350 b -351 -179 -510 -350 -351 -315 b -582 -114 -351 -67 -511 -68 l -382 44 z "},"̵":{"ha":0,"x_min":0,"x_max":0,"o":""},"̸":{"ha":0,"x_min":0,"x_max":0,"o":""},"´":{"ha":833,"x_min":0,"x_max":0,"o":"m 374 1017 l 278 1003 b 118 754 278 988 151 797 l 157 751 l 410 1001 l 410 1003 b 374 1017 408 1003 374 1017 z "},"˘":{"ha":833,"x_min":0,"x_max":0,"o":""},"ˇ":{"ha":833,"x_min":0,"x_max":0,"o":""},"¸":{"ha":833,"x_min":0,"x_max":0,"o":""},"ˆ":{"ha":833,"x_min":0,"x_max":0,"o":""},"¨":{"ha":833,"x_min":0,"x_max":0,"o":""},"˙":{"ha":833,"x_min":0,"x_max":0,"o":""},"`":{"ha":833,"x_min":0,"x_max":0,"o":"m 218 1003 l 122 1017 b 86 1003 122 1017 88 1003 l 86 1001 l 325 751 l 364 754 b 218 1003 331 797 218 988 z "},"˝":{"ha":833,"x_min":0,"x_max":0,"o":""},"¯":{"ha":833,"x_min":0,"x_max":0,"o":""},"˛":{"ha":833,"x_min":0,"x_max":0,"o":""},"˚":{"ha":833,"x_min":0,"x_max":0,"o":""},"˜":{"ha":833,"x_min":0,"x_max":0,"o":""}}}
